<svg width="64" height="63" viewBox="0 0 64 63" fill="none" xmlns="http://www.w3.org/2000/svg">
<path fill-rule="evenodd" clip-rule="evenodd" d="M4.29224 15.0699L35.1056 0.33426C36.9977 -0.570594 39.3053 0.449233 40.2095 2.33993L42.9794 8.13209C45.4121 6.97135 47.5773 6.10429 49.5435 6.79044C50.2142 7.02687 51.2203 7.72301 51.8422 9.0234L54.5384 14.6613C56.028 17.7763 55.2094 24.0542 51.0913 26.1161C53.1687 34.7501 49.3465 44.0857 41.3792 48.7587L44.2754 54.8148L44.986 54.475C47.9398 53.0624 51.3234 54.1984 52.6898 57.0558L52.6953 57.0673L52.7059 57.0902L61.285 52.9875C62.2267 52.5371 63.3655 52.9386 63.8156 53.8796C64.2656 54.8207 63.8633 55.9592 62.9215 56.4096L49.1404 63H36.9327C36.382 60.5205 37.6651 57.976 40.2515 56.7391L40.8507 56.4525L37.9507 50.3883C29.3355 53.5986 19.6495 50.7465 14.2324 43.7493C10.1414 45.5215 4.64581 42.3375 3.16419 39.2394L0.468049 33.6015C-0.145659 32.3182 -0.0603929 31.1107 0.18509 30.4361C0.875947 28.4813 2.98663 27.2792 5.32083 26.1516L2.54685 20.351C1.64267 18.4603 2.40012 15.9747 4.29224 15.0699ZM40.8541 62.758L49.2819 58.7276C49.2762 58.7164 49.2707 58.705 49.2652 58.6936C48.7374 57.59 47.5386 57.4589 46.6226 57.897L44.2142 59.0488L44.1996 59.0558L44.185 59.0627L41.888 60.1612C41.0404 60.5666 40.2354 61.4351 40.7714 62.5558C40.7881 62.5909 40.8037 62.6262 40.8182 62.6618C40.8311 62.6937 40.8431 62.7258 40.8541 62.758ZM12.0182 40.1563C12.0629 40.2498 12.1082 40.3428 12.1542 40.4352C10.1591 40.7722 7.2724 39.031 6.58887 37.6016L3.8927 31.9638L3.76178 31.69C4.00565 31.1697 5.74008 30.1763 6.95786 29.5748L12.0182 40.1563ZM49.8234 22.4499C51.3645 21.1706 51.8076 17.7719 51.1092 16.3117L48.4131 10.6738C48.3476 10.5369 48.2364 10.3483 48.2364 10.3483C47.7495 10.2187 45.7794 11.0024 44.6159 11.5542L49.6808 22.1452C49.7292 22.2465 49.7768 22.3481 49.8234 22.4499ZM28.8628 22.0431C30.165 25.0138 31.2477 27.355 32.1109 29.0665C32.5573 29.9518 33.0049 30.7811 33.4535 31.5542C33.6231 31.5797 33.8875 31.5019 34.2466 31.3208L34.7742 31.027C34.9779 30.8873 35.1735 30.7701 35.3608 30.6756C35.7668 30.4709 36.1126 30.3798 36.3982 30.4023C36.6994 30.417 36.9467 30.6162 37.1402 30.9998C37.3262 31.3687 37.3542 31.7154 37.2242 32.0401C37.1097 32.357 36.7011 32.6925 35.9984 33.0469C35.4051 33.3461 34.6644 33.6641 33.7766 34.0008C33.5661 34.0884 33.3635 34.1721 33.1687 34.2519C32.9738 34.3316 32.7984 34.4108 32.6422 34.4896C31.7908 34.9375 31.1655 35.2898 30.7662 35.5467C30.3669 35.8036 29.9018 36.0659 29.3709 36.3336C28.8868 36.5778 28.4699 36.3531 28.1202 35.6596C27.7853 34.9956 28.0707 34.4353 28.9764 33.9785C29.117 33.9077 29.3508 33.8082 29.678 33.6803C29.9658 33.5906 30.2581 33.471 30.5548 33.3214C30.7265 33.2348 30.8633 33.1565 30.9652 33.0867C30.4823 32.0902 29.8114 30.624 28.9527 28.6882C27.9303 26.4277 27.1512 24.7662 26.6154 23.7039C26.5448 23.758 26.3236 23.9991 25.9519 24.4272C25.4047 25.1288 24.9594 25.5662 24.6158 25.7394C24.4284 25.8339 24.212 25.832 23.9666 25.7337C23.7137 25.6206 23.524 25.4387 23.3975 25.1879C23.271 24.937 23.3122 24.6109 23.5211 24.2094C23.73 23.808 24.1046 23.2304 24.6451 22.4766C24.9543 22.0801 25.2368 21.6693 25.4925 21.2442C25.5565 21.1379 25.6594 21.012 25.8014 20.8663C25.959 20.7128 26.0847 20.6124 26.1784 20.5652C26.5844 20.3604 26.9923 20.2565 27.4021 20.2535C27.82 20.2278 28.0922 20.3404 28.2187 20.5912L28.8628 22.0431Z" fill="#FFB800"/>
</svg>
