<svg width="95" height="106" viewBox="0 0 95 106" fill="none" xmlns="http://www.w3.org/2000/svg">
<path fill-rule="evenodd" clip-rule="evenodd" d="M6.34196 22.2662L51.8695 0.493879C54.6652 -0.843068 58.0747 0.663755 59.4107 3.45732L63.5032 12.015C67.0977 10.2999 70.2969 9.01875 73.2021 10.0326C74.1929 10.3819 75.6796 11.4105 76.5984 13.3318L80.5821 21.662C82.7831 26.2645 81.5736 35.5404 75.4888 38.5869C78.5585 51.3439 72.9111 65.1378 61.1391 72.0424L65.4183 80.9906L66.4682 80.4885C70.8325 78.4014 75.8318 80.0799 77.8508 84.3018C77.8589 84.3186 77.8667 84.3355 77.8744 84.3524L90.5502 78.2906C91.9417 77.6251 93.6243 78.2183 94.2893 79.6088C94.9542 80.9992 94.3597 82.6813 92.9682 83.3468L46.163 105.73C44.7715 106.396 43.089 105.802 42.424 104.412C41.7591 103.021 42.3535 101.339 43.745 100.674L55.3366 95.1305C55.2799 95.0404 55.2279 94.9462 55.1809 94.848C53.1921 90.6892 55.0326 85.9573 59.4728 83.8339L60.3583 83.4104L56.0733 74.4501C43.3442 79.1935 29.033 74.9795 21.029 64.6411C14.9844 67.2597 6.86434 62.5553 4.6752 57.9777L0.691547 49.6475C-0.215201 47.7514 -0.0892418 45.9672 0.273477 44.9706C1.29423 42.0822 4.41292 40.306 7.86183 38.6401L3.76307 30.0692C2.42713 27.2757 3.5463 23.6031 6.34196 22.2662ZM60.3632 92.7267L72.8154 86.7717C72.8071 86.7552 72.7989 86.7384 72.7908 86.7216C72.011 85.091 70.2398 84.8974 68.8862 85.5447L65.3063 87.2567L61.8908 88.8901C60.6384 89.489 59.4491 90.7722 60.241 92.4282C60.2879 92.5264 60.3286 92.626 60.3632 92.7267ZM17.7572 59.3321C17.8233 59.4703 17.8904 59.6078 17.9584 59.7445C15.0105 60.2425 10.7452 57.6698 9.73522 55.5578L5.75157 47.2277L5.55813 46.8232C5.91845 46.0544 8.48128 44.5866 10.2806 43.6979L17.7572 59.3321ZM73.6154 33.17C75.8925 31.28 76.5473 26.2581 75.5154 24.1005L71.5318 15.7703C71.4351 15.5681 71.2707 15.2895 71.2707 15.2895C70.5512 15.0979 67.6402 16.256 65.9212 17.0713L73.4048 32.7202C73.4764 32.8698 73.5466 33.0197 73.6154 33.17Z" fill="#FFB800"/>
<path d="M42.6456 32.5694C44.5697 36.9588 46.1694 40.4179 47.4447 42.9468C48.1044 44.2548 48.7656 45.48 49.4285 46.6224C49.6791 46.6601 50.0697 46.5451 50.6003 46.2775L51.3798 45.8434C51.6809 45.6369 51.9698 45.4639 52.2467 45.3242C52.8465 45.0217 53.3574 44.8871 53.7794 44.9204C54.2244 44.9421 54.5899 45.2364 54.8757 45.8032C55.1506 46.3482 55.1919 46.8606 54.9997 47.3403C54.8307 47.8084 54.227 48.3043 53.1887 48.8279C52.312 49.27 51.2177 49.7398 49.9059 50.2373C49.5949 50.3668 49.2955 50.4904 49.0077 50.6082C48.7198 50.726 48.4605 50.8431 48.2298 50.9595C46.9718 51.6212 46.0479 52.1419 45.4579 52.5214C44.868 52.901 44.1807 53.2885 43.3963 53.6841C42.6811 54.0448 42.0651 53.7128 41.5484 52.6882C41.0536 51.7072 41.4754 50.8792 42.8135 50.2044C43.0212 50.0997 43.3667 49.9528 43.8501 49.7637C44.2754 49.6313 44.7071 49.4545 45.1455 49.2335C45.3993 49.1055 45.6015 48.9899 45.752 48.8866C45.0384 47.4143 44.0473 45.248 42.7784 42.3877C41.2678 39.0478 40.1166 36.593 39.3251 35.0233C39.2207 35.1033 38.8939 35.4595 38.3447 36.092C37.5362 37.1286 36.8782 37.7749 36.3706 38.0309C36.0937 38.1705 35.774 38.1677 35.4113 38.0224C35.0377 37.8554 34.7574 37.5865 34.5705 37.2159C34.3836 36.8453 34.4445 36.3634 34.7531 35.7702C35.0617 35.1771 35.6153 34.3237 36.4138 33.21C36.8708 32.6241 37.2881 32.0171 37.666 31.389C37.7604 31.232 37.9126 31.0459 38.1224 30.8307C38.3553 30.6039 38.5409 30.4556 38.6794 30.3858C39.2792 30.0833 39.8819 29.9297 40.4873 29.9252C41.1049 29.8873 41.5071 30.0536 41.694 30.4242L42.6456 32.5694Z" fill="#272727"/>
</svg>
