<svg width="99" height="41" viewBox="0 0 99 41" fill="none" xmlns="http://www.w3.org/2000/svg">
<path d="M98.6115 18.0161C99.4886 20.6506 98.7629 23.2647 96.9905 23.8548C95.218 24.4449 93.0702 22.7876 92.193 20.153C91.3159 17.5185 92.0416 14.9045 93.8141 14.3144C96.4735 13.1467 97.7344 15.3816 98.6115 18.0161Z" fill="#FFB800"/>
<path d="M89.2434 13.1216C90.3098 15.5504 89.9286 18.2929 88.2892 19.0127C86.6497 19.7326 84.8467 19.2366 83.3063 15.7284C82.1938 13.1946 82.1016 10.7852 84.2605 9.83725C85.9 9.11741 88.1309 10.5879 89.2434 13.1216Z" fill="#FFB800"/>
<path d="M77.5918 26.1891C79.3859 28.296 79.9998 31.369 78.5011 32.6452C77.0024 33.9214 73.9586 32.9176 72.1645 30.8107C70.3704 28.7039 70.131 25.9614 71.6297 24.6851C73.4588 22.6272 75.7978 24.0823 77.5918 26.1891Z" fill="#FFB800"/>
<path d="M81.3736 17.1717C82.8128 19.5352 82.6635 22.2525 81.0401 23.241C79.4167 24.2296 76.934 23.1149 75.4948 20.7514C74.0556 18.3879 73.7912 15.3186 75.4729 14.0169C76.4339 13.2731 79.9344 14.8082 81.3736 17.1717Z" fill="#FFB800"/>
<path d="M93.9723 26.9368C93.9723 26.9368 89.2066 21.9476 85.9682 23.3695C82.9997 24.6729 83.259 31.278 83.259 31.278C83.259 31.278 81.5463 34.559 82.6447 37.0606C84.0843 40.3396 87.1734 41.51 92.6892 39.4101C97.0115 37.5124 99.1969 33.7042 97.7572 30.4252C96.3176 27.1463 93.9723 26.9368 93.9723 26.9368Z" fill="#FFB800"/>
<path d="M22.5948 2.77483C24.6502 4.64179 25.2982 7.27623 24.0421 8.659C22.7861 10.0418 20.1017 9.64925 18.0463 7.78228C15.991 5.91532 15.343 3.28088 16.599 1.89811C18.3454 -0.422678 20.5395 0.907861 22.5948 2.77483Z" fill="#FFB800"/>
<path d="M12.03 3.09806C14.1495 4.69297 15.1609 7.27051 14.0843 8.70125C13.0077 10.132 11.1929 10.583 8.13131 8.27922C5.92017 6.61539 4.65932 4.56008 6.07702 2.67602C7.15361 1.24529 9.81884 1.43424 12.03 3.09806Z" fill="#FFB800"/>
<path d="M8.27474 20.1967C10.8709 21.1545 12.9116 23.5327 12.2303 25.3795C11.549 27.2263 8.40371 27.8424 5.80753 26.8847C3.21134 25.9269 1.65903 23.6534 2.34033 21.8065C2.92665 19.1164 5.67855 19.239 8.27474 20.1967Z" fill="#FFB800"/>
<path d="M7.15405 10.4843C9.56661 11.8396 10.7677 14.2817 9.83678 15.9388C8.90586 17.5958 6.19542 17.8404 3.78286 16.4851C1.3703 15.1297 -0.363892 12.5835 0.464455 10.6249C0.937803 9.50563 4.74149 9.12893 7.15405 10.4843Z" fill="#FFB800"/>
<path d="M22.9774 13.5483C22.9774 13.5483 16.3785 11.5337 14.252 14.3597C12.3026 16.9503 15.7646 22.5815 15.7646 22.5815C15.7646 22.5815 15.8789 26.2808 18.0621 27.9235C20.9235 30.0767 24.1899 29.5837 27.9697 25.0508C30.808 21.2788 30.8474 16.8883 27.986 14.7351C25.1245 12.5819 22.9774 13.5483 22.9774 13.5483Z" fill="#FFB800"/>
</svg>
