<svg width="29" height="24" viewBox="0 0 29 24" fill="none" xmlns="http://www.w3.org/2000/svg">
<path fill-rule="evenodd" clip-rule="evenodd" d="M0 8.71467C0 11.3291 1.4253 13.7176 3.62812 15.2991C3.82252 15.4282 3.91964 15.6219 3.91964 15.8801C3.91964 15.9446 3.88726 16.0415 3.88726 16.106C3.72532 16.7515 3.43372 17.8167 3.40135 17.849C3.36897 17.9458 3.3366 18.0103 3.3366 18.1071C3.3366 18.3009 3.49855 18.4622 3.69295 18.4622C3.75769 18.4622 3.82252 18.4299 3.88726 18.3976L6.18729 17.0743C6.34915 16.9775 6.54355 16.9129 6.73795 16.9129C6.83515 16.9129 6.96472 16.9129 7.06192 16.9452C8.13088 17.268 9.29703 17.4293 10.4956 17.4293C16.2941 17.4293 20.9913 13.5239 20.9913 8.71467C20.9913 3.90547 16.2941 0 10.4956 0C4.69716 0 0 3.90547 0 8.71467Z" fill="url(#paint0_linear_2123_59)"/>
<path fill-rule="evenodd" clip-rule="evenodd" d="M20.2747 22.5584C21.2765 22.5584 22.246 22.4283 23.1185 22.1682C23.1832 22.1356 23.2801 22.1356 23.3771 22.1356C23.5387 22.1356 23.7002 22.2007 23.8295 22.2657L25.7361 23.3714C25.8007 23.4039 25.833 23.4364 25.8977 23.4364C25.9361 23.4365 25.974 23.4289 26.0095 23.4142C26.0449 23.3995 26.077 23.3779 26.1041 23.3507C26.1311 23.3235 26.1525 23.2912 26.167 23.2556C26.1815 23.2201 26.1888 23.1821 26.1885 23.1437C26.1885 23.0787 26.1562 23.0137 26.1562 22.9161C26.1562 22.8836 25.8977 22.0057 25.7685 21.4528C25.7361 21.3877 25.7361 21.3227 25.7361 21.2576C25.7361 21.0626 25.833 20.8999 25.9946 20.7699C27.8366 19.4365 29 17.4529 29 15.2416C29 11.2092 25.0898 7.9248 20.2747 7.9248C15.4596 7.9248 11.5494 11.1767 11.5494 15.2416C11.5494 19.274 15.4596 22.5584 20.2747 22.5584Z" fill="url(#paint1_linear_2123_59)"/>
<path fill-rule="evenodd" clip-rule="evenodd" d="M8.34599 5.90157C8.34599 6.65439 7.74997 7.25041 6.99715 7.25041C6.24433 7.25041 5.64832 6.65439 5.64832 5.90157C5.64832 5.14875 6.24433 4.55273 6.99715 4.55273C7.74997 4.55273 8.34599 5.14875 8.34599 5.90157ZM15.3431 5.90157C15.3431 6.65439 14.7471 7.25041 13.9942 7.25041C13.2414 7.25041 12.6454 6.65439 12.6454 5.90157C12.6454 5.14875 13.2414 4.55273 13.9942 4.55273C14.7471 4.55273 15.3431 5.14875 15.3431 5.90157Z" fill="#187E28"/>
<path fill-rule="evenodd" clip-rule="evenodd" d="M22.0872 12.982C22.0872 13.6377 22.6118 14.1622 23.2675 14.1622C23.9232 14.1622 24.4477 13.6377 24.4477 12.982C24.4477 12.3263 23.9232 11.8018 23.2675 11.8018C22.6118 11.8018 22.0872 12.3263 22.0872 12.982ZM16.2704 12.982C16.2704 13.6377 16.7949 14.1622 17.4506 14.1622C18.1063 14.1622 18.6309 13.6377 18.6309 12.982C18.6309 12.3263 18.1063 11.8018 17.4506 11.8018C16.7949 11.8018 16.2704 12.3263 16.2704 12.982Z" fill="#858C8C"/>
<defs>
<linearGradient id="paint0_linear_2123_59" x1="10.5073" y1="17.3823" x2="10.5073" y2="0.0805625" gradientUnits="userSpaceOnUse">
<stop stop-color="#78D431"/>
<stop offset="1" stop-color="#9EEE69"/>
</linearGradient>
<linearGradient id="paint1_linear_2123_59" x1="20.2902" y1="22.4334" x2="20.2902" y2="7.91916" gradientUnits="userSpaceOnUse">
<stop stop-color="#E4E6E6"/>
<stop offset="1" stop-color="#F5F5FF"/>
</linearGradient>
</defs>
</svg>
