<svg width="21" height="23" viewBox="0 0 21 23" fill="none" xmlns="http://www.w3.org/2000/svg">
<path d="M20.0002 6.50005C20.0002 5.93123 19.6791 5.41338 19.1672 5.15728L11.1672 1.15728C10.748 0.947686 10.2534 0.94774 9.8342 1.15728L1.8342 5.15728C1.3221 5.41332 1.00021 5.9311 1.00021 6.50005V16.0264C0.992757 16.5929 1.31439 17.1181 1.82443 17.3731L9.82443 21.3731C10.2436 21.5825 10.7481 21.5826 11.1672 21.3731L19.1672 17.3731C19.6791 17.117 20.0001 16.5991 20.0002 16.0303V6.50005ZM21.0002 16.0303C21.0001 16.9812 20.4622 17.8437 19.6145 18.2676L11.6145 22.2676C10.9139 22.6179 10.0778 22.6178 9.37716 22.2676L1.37716 18.2676C0.527281 17.8427 -0.0122353 16.9671 0.000210832 16.0137V6.50005C0.000214071 5.54901 0.539027 4.6867 1.38693 4.26275L9.38693 0.262746C10.0877 -0.0875553 10.9138 -0.0876088 11.6145 0.262746L19.6145 4.26275C20.4622 4.68676 21.0002 5.54914 21.0002 6.50005V16.0303Z" fill="#848484"/>
<path d="M19.9567 4.97281C20.2036 4.84953 20.5042 4.94955 20.6276 5.19645C20.7509 5.44331 20.6507 5.74379 20.404 5.86734L10.7233 10.7072C10.5826 10.7775 10.4167 10.7775 10.276 10.7072L0.596348 5.86734C0.349358 5.74385 0.24922 5.44343 0.372715 5.19645C0.496209 4.94946 0.796624 4.84932 1.04361 4.97281L10.4997 9.70035L19.9567 4.97281Z" fill="#848484"/>
<path d="M10 22.0195V10.2598C10 9.98362 10.2239 9.75977 10.5 9.75977C10.7761 9.75977 11 9.98362 11 10.2598V22.0195C11 22.2957 10.7761 22.5195 10.5 22.5195C10.2239 22.5195 10 22.2957 10 22.0195Z" fill="#848484"/>
<path d="M5.05289 2.53629C5.17639 2.2893 5.4768 2.18916 5.72379 2.31266L15.7238 7.31266C15.9708 7.43615 16.0709 7.73657 15.9474 7.98355C15.8239 8.23054 15.5235 8.33068 15.2765 8.20719L5.27652 3.20719C5.02953 3.08369 4.9294 2.78328 5.05289 2.53629Z" fill="#848484"/>
</svg>
