<svg width="19" height="19" viewBox="0 0 19 19" fill="none" xmlns="http://www.w3.org/2000/svg">
<path d="M18 2.5C18 1.67157 17.3284 1 16.5 1H2.5C1.67157 1 1 1.67157 1 2.5V16.5C1 17.3284 1.67157 18 2.5 18H16.5C17.3284 18 18 17.3284 18 16.5V2.5ZM19 16.5C19 17.8807 17.8807 19 16.5 19H2.5C1.11929 19 0 17.8807 0 16.5V2.5C0 1.11929 1.11929 0 2.5 0H16.5C17.8807 0 19 1.11929 19 2.5V16.5Z" fill="#848484"/>
<path d="M7 6C7 5.44772 6.55228 5 6 5C5.44772 5 5 5.44772 5 6C5 6.55228 5.44772 7 6 7C6.55228 7 7 6.55228 7 6ZM8 6C8 7.10457 7.10457 8 6 8C4.89543 8 4 7.10457 4 6C4 4.89543 4.89543 4 6 4C7.10457 4 8 4.89543 8 6Z" fill="#848484"/>
<path d="M13.2246 7.08224C13.4186 6.95407 13.6826 6.97583 13.8535 7.14669L18.8535 12.1467C19.0487 12.342 19.0487 12.6585 18.8535 12.8537C18.6582 13.049 18.3417 13.049 18.1464 12.8537L13.5 8.20724L2.85348 18.8537C2.65822 19.049 2.34171 19.049 2.14645 18.8537C1.95118 18.6585 1.95118 18.342 2.14645 18.1467L13.1464 7.14669L13.2246 7.08224Z" fill="#848484"/>
</svg>
