<svg width="21" height="16" viewBox="0 0 21 16" fill="none" xmlns="http://www.w3.org/2000/svg">
<path d="M10.5 0C13.8814 0 16.5044 1.93105 18.251 3.79395C19.1288 4.73025 19.7999 5.66535 20.252 6.36523C20.4783 6.71566 20.6513 7.00818 20.7676 7.21484C20.8257 7.3181 20.8693 7.4002 20.8994 7.45703C20.9144 7.48543 20.9256 7.50797 20.9336 7.52344C20.9375 7.53101 20.9412 7.53671 20.9434 7.54102C20.9445 7.54318 20.9456 7.54558 20.9463 7.54688V7.54785L20.9473 7.54883L20.9863 7.6582C21.0128 7.77085 21 7.89043 20.9473 7.99609V7.99707H20.9463V7.99902C20.9457 8.00029 20.9444 8.00181 20.9434 8.00391C20.9412 8.00824 20.9376 8.01473 20.9336 8.02246C20.9257 8.03787 20.9143 8.05982 20.8994 8.08789C20.8694 8.14465 20.8256 8.22691 20.7676 8.33008C20.6513 8.53674 20.4783 8.83023 20.252 9.18066C19.7999 9.88052 19.1286 10.8148 18.251 11.751C16.5044 13.614 13.8816 15.5459 10.5 15.5459C7.11845 15.5459 4.49558 13.614 2.74902 11.751C1.87136 10.8148 1.20006 9.88052 0.748046 9.18066C0.521726 8.83023 0.348668 8.53674 0.232421 8.33008C0.174393 8.22691 0.130622 8.14465 0.100585 8.08789C0.0857308 8.05982 0.0743275 8.03787 0.066405 8.02246C0.0624287 8.01473 0.0588343 8.00824 0.0566394 8.00391C0.0555795 8.00181 0.0543447 8.00029 0.0537097 7.99902V7.99707H0.0527331V7.99609C-0.0175422 7.85538 -0.0176132 7.68952 0.0527331 7.54883L0.0537097 7.54785V7.54688C0.0543607 7.54558 0.0555418 7.54318 0.0566394 7.54102C0.0588253 7.53671 0.0625093 7.53101 0.066405 7.52344C0.0743564 7.50797 0.0855566 7.48543 0.100585 7.45703C0.13066 7.4002 0.174342 7.3181 0.232421 7.21484C0.348668 7.00818 0.521726 6.71566 0.748046 6.36523C1.20006 5.66535 1.87123 4.73025 2.74902 3.79395C4.49558 1.93105 7.11862 1.13472e-07 10.5 0ZM10.5 1C7.51793 1 5.14105 2.70514 3.47851 4.47852C2.65199 5.36015 2.01654 6.24354 1.58789 6.90723C1.37395 7.23849 1.21197 7.51402 1.10449 7.70508C1.0912 7.7287 1.079 7.75148 1.06738 7.77246C1.07904 7.79351 1.09115 7.81613 1.10449 7.83984C1.21196 8.03091 1.37387 8.30631 1.58789 8.6377C2.01655 9.30143 2.65182 10.1856 3.47851 11.0674C5.14104 12.8407 7.51804 14.5459 10.5 14.5459C13.482 14.5459 15.859 12.8407 17.5215 11.0674C18.3482 10.1856 18.9834 9.30143 19.4121 8.6377C19.6261 8.30631 19.788 8.03091 19.8955 7.83984C19.9088 7.81629 19.92 7.79339 19.9316 7.77246C19.9201 7.7516 19.9087 7.72855 19.8955 7.70508C19.788 7.51402 19.626 7.23849 19.4121 6.90723C18.9835 6.24354 18.348 5.36015 17.5215 4.47852C15.8589 2.70514 13.4821 1 10.5 1Z" fill="#848484"/>
<path d="M12.7271 7.77295C12.7271 6.54295 11.7305 5.54555 10.5005 5.54541C9.2704 5.54541 8.27295 6.54286 8.27295 7.77295C8.27309 9.00292 9.27049 9.99951 10.5005 9.99951C11.7304 9.99937 12.7269 9.00283 12.7271 7.77295ZM13.7271 7.77295C13.7269 9.55511 12.2827 10.9994 10.5005 10.9995C8.7182 10.9995 7.27309 9.5552 7.27295 7.77295C7.27295 5.99058 8.71811 4.54541 10.5005 4.54541C12.2827 4.54555 13.7271 5.99066 13.7271 7.77295Z" fill="#848484"/>
</svg>
