<svg width="50" height="58" viewBox="0 0 50 58" fill="none" xmlns="http://www.w3.org/2000/svg">
<path d="M38.9072 26.8819C38.6569 26.7621 38.4026 26.6469 38.145 26.5365C37.6964 18.2876 33.18 13.5651 25.5963 13.5167C25.5619 13.5165 25.5277 13.5165 25.4934 13.5165C20.9574 13.5165 17.1848 15.4488 14.8628 18.965L19.0336 21.8203C20.7682 19.1939 23.4905 18.634 25.4954 18.634C25.5185 18.634 25.5418 18.634 25.5647 18.6342C28.0617 18.6501 29.946 19.3746 31.1655 20.7876C32.053 21.8162 32.6466 23.2378 32.9405 25.0318C30.7266 24.6563 28.3323 24.5408 25.7728 24.6872C18.5625 25.1017 13.9272 29.2984 14.2385 35.1299C14.3965 38.0879 15.8731 40.6326 18.3962 42.295C20.5293 43.7003 23.2768 44.3875 26.1322 44.2319C29.903 44.0256 32.8612 42.5898 34.925 39.9644C36.4923 37.9707 37.4837 35.3869 37.9213 32.1314C39.7184 33.2138 41.0503 34.6381 41.7858 36.3503C43.0365 39.2609 43.1095 44.0438 39.199 47.943C35.7728 51.359 31.6544 52.8368 25.4303 52.8824C18.5261 52.8314 13.3045 50.6216 9.90958 46.3145C6.73052 42.2814 5.08757 36.456 5.02627 29C5.08757 21.5439 6.73052 15.7185 9.90958 11.6854C13.3045 7.37836 18.526 5.16865 25.4302 5.11744C32.3845 5.16904 37.6971 7.38938 41.2219 11.7172C42.9503 13.8395 44.2534 16.5085 45.1124 19.6204L50 18.319C48.9587 14.4886 47.3203 11.1879 45.0906 8.45048C40.5717 2.90202 33.9627 0.058951 25.4472 0H25.4131C16.915 0.0587461 10.38 2.91263 5.98977 8.48229C2.0831 13.4386 0.0679243 20.335 0.000211884 28.9796L0 29L0.000211884 29.0204C0.0679243 37.665 2.0831 44.5615 5.98977 49.5178C10.38 55.0873 16.915 57.9414 25.4131 58H25.4472C33.0026 57.9477 38.3282 55.9736 42.7154 51.5992C48.4554 45.8762 48.2825 38.7026 46.3907 34.2988C45.0334 31.1409 42.4457 28.5759 38.9072 26.8819ZM25.8622 39.1219C22.7021 39.2995 19.4191 37.884 19.2572 34.852C19.1372 32.6039 20.8603 30.0954 26.0562 29.7965C26.6512 29.7623 27.2351 29.7455 27.8087 29.7455C29.696 29.7455 31.4616 29.9285 33.0668 30.2787C32.468 37.7408 28.9562 38.9524 25.8622 39.1219Z" fill="white" fill-opacity="0.1"/>
</svg>
