<svg width="46" height="52" viewBox="0 0 46 52" fill="none" xmlns="http://www.w3.org/2000/svg">
<path d="M24.1596 0.0433537C27.0494 1.64735e-07 29.9181 0.0225439 32.7849 0C32.8802 3.52204 34.3349 6.69206 36.6492 9.04009L36.6456 9.03662C39.1365 11.2407 42.3776 12.6696 45.9506 12.9124L46 12.9159V21.649C42.6247 21.5658 39.4507 20.801 36.5891 19.4866L36.7339 19.5455C35.3499 18.8917 34.1795 18.2206 33.0674 17.4715L33.1592 17.5304C33.138 23.8583 33.1803 30.1862 33.115 36.4916C32.9332 39.7049 31.8458 42.6356 30.1016 45.0825L30.137 45.0287C27.2207 49.1317 22.4967 51.8249 17.1249 51.9844H17.1002C16.883 51.9948 16.6271 52 16.3693 52C13.3153 52 10.4608 51.1641 8.02825 49.7127L8.09886 49.7526C3.67147 47.1357 0.61749 42.6582 0.0525916 37.4505L0.0455304 37.3794C0.00139778 36.2956 -0.0197861 35.2118 0.0243466 34.1505C0.889347 25.863 7.95764 19.4519 16.5494 19.4519C17.515 19.4519 18.4612 19.5334 19.3809 19.6877L19.2821 19.6738C19.3262 22.8803 19.1938 26.0884 19.1938 29.2949C18.4471 29.0295 17.5856 28.8752 16.6871 28.8752C13.3895 28.8752 10.5844 30.9458 9.54641 33.8366L9.53053 33.8886C9.29574 34.6291 9.15981 35.4806 9.15981 36.3615C9.15981 36.7187 9.18276 37.0725 9.22513 37.4193L9.2216 37.3777C9.80768 40.9258 12.904 43.6033 16.6377 43.6033C16.7453 43.6033 16.8513 43.6015 16.9572 43.5963H16.9413C19.5239 43.52 21.7659 42.1553 23.0334 40.1385L23.051 40.1072C23.5223 39.4621 23.8454 38.6818 23.9531 37.8338L23.9548 37.8095C24.1755 33.9302 24.0872 30.0735 24.1084 26.1942C24.1296 17.4611 24.0872 8.74875 24.1526 0.0381513L24.1596 0.0433537Z" fill="white" fill-opacity="0.1"/>
</svg>
