<svg width="71" height="71" viewBox="0 0 71 71" fill="none" xmlns="http://www.w3.org/2000/svg">
<path d="M35.5009 0.0342207C20.9601 0.0342207 7.15224 -1.25824 1.87817 12.2666C-0.300339 17.8526 0.0160261 25.1073 0.0160261 35.495C0.0160261 44.6103 -0.276311 53.1774 1.87817 58.7194C7.14023 72.2522 21.0603 70.9558 35.4929 70.9558C49.4169 70.9558 63.7734 72.4043 69.1116 58.7194C71.2941 53.0773 70.9737 45.9308 70.9737 35.495C70.9737 21.642 71.7386 12.6988 65.0149 5.98436C58.207 -0.818087 49.0004 0.0342207 35.4849 0.0342207H35.5009ZM32.3212 6.42452C62.6521 6.37651 66.5126 3.0073 64.3821 49.8122C63.6253 66.3661 51.0107 64.5495 35.5049 64.5495C7.23233 64.5495 6.4194 63.7412 6.4194 35.479C6.4194 6.88869 8.66198 6.44053 32.3212 6.41652V6.42452ZM54.4427 12.3106C52.092 12.3106 50.1858 14.2153 50.1858 16.5642C50.1858 18.913 52.092 20.8177 54.4427 20.8177C56.7934 20.8177 58.6996 18.913 58.6996 16.5642C58.6996 14.2153 56.7934 12.3106 54.4427 12.3106V12.3106ZM35.5009 17.2844C25.4373 17.2844 17.2799 25.4394 17.2799 35.495C17.2799 45.5506 25.4373 53.7016 35.5009 53.7016C45.5645 53.7016 53.7179 45.5506 53.7179 35.495C53.7179 25.4394 45.5645 17.2844 35.5009 17.2844V17.2844ZM35.5009 23.6747C51.1389 23.6747 51.1589 47.3153 35.5009 47.3153C19.8669 47.3153 19.8429 23.6747 35.5009 23.6747Z" fill="white" fill-opacity="0.15"/>
</svg>
